<?xml version="1.0" encoding="UTF-8" standalone="no"?>
<!-- Created with Inkscape (http://www.inkscape.org/) -->

<svg
   width="15mm"
   height="15mm"
   viewBox="0 0 15 15"
   version="1.1"
   id="svg1"
   xml:space="preserve"
   xmlns="http://www.w3.org/2000/svg"
   xmlns:svg="http://www.w3.org/2000/svg"><defs
     id="defs1" /><g
     id="layer7"><g
       id="g34"
       style="display:inline;stroke:none"
       transform="matrix(0.05002949,0.04991622,-0.05054117,0.05042674,22.906812,3.9635842)"><path
         id="path6-9"
         style="fill:#ffffff;fill-opacity:1;stroke:none;stroke-width:1.07577;stroke-dasharray:none;stroke-opacity:1"
         d="m -199.07636,118.46012 c -0.58416,7.23745 4.15206,12.18441 8.97254,13.28049 -5.23133,6.21673 -8.2108,13.80862 -7.94781,21.21412 0.65986,18.58112 16.4357,30.12968 28.55389,29.69932 16.47994,-0.58524 21.37539,-16.03952 20.94709,-23.60046 -0.42829,-7.56094 -6.00043,-9.46867 -10.3289,-9.27557 -4.32847,0.19311 -8.71629,4.92442 -8.25622,8.86419 2.49264,-2.82449 4.62041,-6.53824 8.51403,-6.63269 2.00919,-0.0487 7.70058,1.11467 8.02397,7.04279 0.68789,12.60963 -8.65346,21.50791 -18.63196,21.09234 -9.9785,-0.41556 -20.00242,-14.46562 -19.17844,-27.17526 0.82398,-12.70963 4.60806,-30.27626 29.22862,-31.75184 14.04541,-0.84179 31.79409,10.32072 32.33801,25.6371 0.48734,13.72319 -13.4637,33.18366 -12.86302,50.09833 1.41642,39.88548 20.4982,59.21727 42.101521,59.21727 6.13428,0 12.00779,-1.65137 17.2704,-4.07552 5.06185,-0.82791 13.45421,-1.11991 21.90512,4.77088 -2.19241,-8.38263 -5.48042,-11.50954 -10.53642,-12.25261 -0.11701,-0.0172 -0.22915,-0.0299 -0.34142,-0.043 6.65986,-6.51913 10.73988,-15.47779 10.3591,-26.19994 -0.65539,-18.45535 -15.52202,-28.95956 -28.30332,-28.95956 -14.662211,0 -21.282111,10.42666 -20.853681,22.49081 0.3121,8.78847 8.00758,16.00139 14.073561,14.1429 -3.23016,-1.84637 -11.424001,-4.90492 -11.687141,-12.31522 -0.55898,-15.73971 6.980971,-21.17446 16.438961,-21.51034 14.78602,-0.5251 22.28181,13.10267 22.73991,26.00269 0.84298,23.73755 -10.77825,35.51773 -30.41197,36.2268 -14.336851,0.51774 -26.838721,-11.57039 -27.423611,-28.04059 -0.72299,-20.35876 11.7567,-30.02961 11.01413,-50.93963 -0.46355,-13.05337 -2.89613,-56.0889 -45.93413,-57.46052 -6.8537,-0.21843 -13.18847,1.36341 -18.67664,4.13883 0.12219,-0.18924 0.21757,-0.33835 0.34428,-0.53402 -4.9325,0.92256 -12.50343,3.08445 -21.45045,-3.15215 z" /><path
         style="fill:#ffffff;fill-opacity:1;stroke:none;stroke-width:1.06048;stroke-dasharray:none;stroke-opacity:1"
         d="m -197.96881,196.02535 59.46031,59.46032 h 9.49958 l -68.69601,-68.69602 z"
         id="path8-83" /><path
         style="fill:#ffffff;fill-opacity:1;stroke:none;stroke-width:1;stroke-dasharray:none;stroke-opacity:1"
         d="m -198.27606,206.70217 49.93145,49.93147 h -50.26322 z"
         id="path7-2-6-2" /><path
         style="fill:#ffffff;fill-opacity:1;stroke:none;stroke-width:1.06048;stroke-dasharray:none;stroke-opacity:1"
         d="m -59.875399,178.20047 -59.460311,-59.46032 h -9.49958 l 68.696011,68.69602 z"
         id="path8-0-2" /><path
         style="fill:#ffffff;fill-opacity:1;stroke:none;stroke-width:1;stroke-dasharray:none;stroke-opacity:1"
         d="M -59.568149,167.52365 -109.4996,117.59218 h 50.263221 z"
         id="path7-2-6-3-4" /></g></g></svg>
