<?xml version="1.0" encoding="UTF-8" standalone="no"?>
<!-- Created with Inkscape (http://www.inkscape.org/) -->

<svg
   width="15mm"
   height="14mm"
   viewBox="0 0 15 14"
   version="1.1"
   id="svg1"
   xml:space="preserve"
   xmlns="http://www.w3.org/2000/svg"
   xmlns:svg="http://www.w3.org/2000/svg"><defs
     id="defs1" /><g
     id="layer7"><g
       id="g35"
       style="display:inline"
       transform="matrix(0.04343234,-0.04272087,0.04328022,0.04257124,-6.350521,1.1906691)"><path
         style="fill:#ffffff;fill-opacity:1;stroke:none;stroke-width:2;stroke-dasharray:none;stroke-opacity:1"
         d="m 15.89438,130.78008 c 9.865235,41.20271 11.812017,125.92557 -0.836546,161.7323 61.871866,-22.03763 116.182546,-16.66955 162.011136,0 C 132.24332,267.67616 60.941045,257.63772 21.750204,286.65654 44.61958,248.50891 36.51526,179.57531 15.89438,130.78008 Z"
         id="path18-1" /><path
         style="display:inline;fill:#ffffff;fill-opacity:1;stroke:none;stroke-width:2;stroke-dasharray:none;stroke-opacity:1"
         d="m 23.784359,285.06761 c 30.207704,-34.71145 64.264137,-29.64428 106.857271,-29.64428 29.53537,0 44.4664,-28.21416 44.4664,-50.67102 0,-20.02534 -16.34808,-38.75474 -42.22403,-38.75474 -25.01328,0 -42.94001,16.93689 -42.94001,36.68653 0,21.03772 16.33266,29.8315 33.64659,30.62375 16.42334,0.75149 25.4824,-9.638 25.4824,-22.69612 0,-8.81687 -13.14912,-19.73024 -22.04631,-14.59345 10.89101,2.91824 13.77349,9.49894 13.77349,14.49925 0,5.00031 -4.75898,11.50745 -14.98798,10.88573 -9.97278,-0.60614 -21.88767,-7.77962 -21.88767,-18.13294 0,-13.19978 12.63837,-24.95792 28.03736,-24.95792 19.20227,0 28.59132,11.94652 28.59132,27.88267 0,15.24148 -3.94171,39.92134 -35.77148,39.92134 -32.938156,0 -59.019809,-6.15522 -100.997351,38.9512 z"
         id="path19-1-91" /><path
         style="display:inline;fill:#ffffff;fill-opacity:1;stroke:none;stroke-width:2;stroke-dasharray:none;stroke-opacity:1"
         d="m 167.87779,249.79628 c -4.86365,11.4906 -3.82269,19.44388 -0.36735,27.18371 -7.85265,-7.37596 -15.51382,-11.57233 -28.28575,-12.85716 13.65185,-3.13103 20.52301,-8.7258 28.6531,-14.32655 z"
         id="path20-8" /><path
         style="fill:#ffffff;fill-opacity:1;stroke:none;stroke-width:2;stroke-dasharray:none;stroke-opacity:1"
         d="M 24.73022,284.20126 C 37.644139,252.66021 69.326432,207.83781 66.339796,182.53257 63.35316,157.22733 46.989884,144.61929 41.217032,147.59623 c -5.772852,2.97694 11.383753,14.89237 11.383753,33.36617 0,22.73891 -9.421037,47.49773 -9.421037,47.49773 0,0 6.419049,-30.9258 6.419049,-40.83062 0,-9.90483 -11.52231,-22.42595 -14.662455,-34.14513 -1.479121,-5.52016 -0.335391,-16.48681 7.850862,-16.48681 21.097233,0 27.478024,38.96218 27.478024,52.60078 9.58558,-33.40757 28.490501,-59.66656 62.414362,-59.66656 27.16036,0 41.8104,5.79759 40.82449,35.72143 0,0 -4.32229,-27.87057 -37.2916,-27.87057 -23.20316,0 -34.46493,8.7982 -43.179748,21.58988 8.622828,-6.8074 18.915848,-12.56138 31.010908,-12.56138 14.01059,0 23.94513,6.67323 23.94513,6.67323 0,0 -16.83452,-5.102 -27.08548,-2.35526 -10.24516,2.74518 -30.579015,15.55056 -48.401432,45.97217 -17.822416,30.42161 -37.821584,71.29225 -47.771638,87.09997 z"
         id="path21-7" /><path
         style="fill:#ffffff;fill-opacity:1;stroke:none;stroke-width:2;stroke-dasharray:none;stroke-opacity:1"
         d="m 56.006901,224.73841 c 4.155244,-5.30559 10.512293,-6.68756 14.177566,-6.50313 5.153533,0.25932 13.3118,3.89693 13.617882,16.4113 -5.493543,-4.69551 -12.535162,-3.47938 -15.821899,-2.82066 -7.219656,1.44697 -17.883982,6.23454 -23.63504,16.78772 0.722607,-2.87162 10.988096,-23.18074 11.661491,-23.87523 z"
         id="path23-5" /></g></g></svg>
